<svg width="296" height="31" viewBox="0 0 296 31" fill="none" xmlns="http://www.w3.org/2000/svg">
    <circle cx="15.5" cy="15.5" r="15.5" fill="#737373" fill-opacity="0.28"/>
    <path d="M15.5 22.7463L14.3762 21.7233C10.385 18.104 7.75 15.7093 7.75 12.7875C7.75 10.3928 9.6255 8.52502 12.0125 8.52502C13.361 8.52502 14.6552 9.15277 15.5 10.137C16.3447 9.15277 17.639 8.52502 18.9875 8.52502C21.3745 8.52502 23.25 10.3928 23.25 12.7875C23.25 15.7093 20.615 18.104 16.6237 21.7233L15.5 22.7463Z" fill="#FA6F6F"/>
    <path d="M49.142 20V13.476L46.594 18.334H45.516L42.968 13.476V20H41.036V10.06H43.108L46.048 15.716L49.016 10.06H51.074V20H49.142ZM52.9673 11.642V9.78H54.8433V11.642H52.9673ZM52.9673 20V12.664H54.8433V20H52.9673ZM59.2376 20.14C58.6123 20.14 58.015 20.0373 57.4456 19.832C56.8763 19.6267 56.3863 19.3233 55.9756 18.922L56.6476 17.704C57.0863 18.0587 57.5156 18.32 57.9356 18.488C58.3556 18.656 58.7663 18.74 59.1676 18.74C59.5316 18.74 59.821 18.6747 60.0356 18.544C60.2596 18.4133 60.3716 18.2173 60.3716 17.956C60.3716 17.6853 60.2363 17.5033 59.9656 17.41C59.695 17.3073 59.317 17.1813 58.8316 17.032C58.2903 16.864 57.8376 16.6913 57.4736 16.514C57.1096 16.3367 56.8343 16.122 56.6476 15.87C56.4703 15.618 56.3816 15.2913 56.3816 14.89C56.3816 14.1713 56.6523 13.5973 57.1936 13.168C57.735 12.7387 58.4536 12.524 59.3496 12.524C59.8723 12.524 60.367 12.608 60.8336 12.776C61.3003 12.9347 61.725 13.196 62.1076 13.56L61.3516 14.75C60.633 14.19 59.9376 13.91 59.2656 13.91C58.967 13.91 58.701 13.966 58.4676 14.078C58.2436 14.19 58.1316 14.386 58.1316 14.666C58.1316 14.9273 58.239 15.114 58.4536 15.226C58.6776 15.338 59.0136 15.4593 59.4616 15.59C60.0403 15.7673 60.5303 15.94 60.9316 16.108C61.3423 16.276 61.6503 16.4907 61.8556 16.752C62.0703 17.0133 62.1776 17.368 62.1776 17.816C62.1776 18.544 61.9116 19.1133 61.3796 19.524C60.8476 19.9347 60.1336 20.14 59.2376 20.14ZM71.2129 20.14C70.6342 20.14 70.1302 20.0093 69.7009 19.748C69.2716 19.4867 68.9356 19.1413 68.6929 18.712V22.982H66.8169V12.664H68.4549V13.924C68.7256 13.4947 69.0756 13.1587 69.5049 12.916C69.9436 12.664 70.4382 12.538 70.9889 12.538C71.6516 12.538 72.2396 12.7107 72.7529 13.056C73.2662 13.392 73.6722 13.8493 73.9709 14.428C74.2696 14.9973 74.4189 15.6273 74.4189 16.318C74.4189 17.0367 74.2789 17.6853 73.9989 18.264C73.7282 18.8333 73.3502 19.2907 72.8649 19.636C72.3889 19.972 71.8382 20.14 71.2129 20.14ZM70.5829 18.544C70.9656 18.544 71.2969 18.4413 71.5769 18.236C71.8662 18.0213 72.0902 17.746 72.2489 17.41C72.4169 17.0647 72.5009 16.7007 72.5009 16.318C72.5009 15.9073 72.4122 15.5387 72.2349 15.212C72.0576 14.876 71.8149 14.6147 71.5069 14.428C71.2082 14.232 70.8629 14.134 70.4709 14.134C70.1162 14.134 69.7616 14.2507 69.4069 14.484C69.0522 14.7173 68.8142 15.0113 68.6929 15.366V17.088C68.8609 17.4987 69.1176 17.844 69.4629 18.124C69.8082 18.404 70.1816 18.544 70.5829 18.544ZM80.0579 14.288C79.4886 14.288 78.9799 14.4 78.5319 14.624C78.0839 14.8387 77.7619 15.1513 77.5659 15.562V20H75.6899V12.664H77.4119V14.232C77.6639 13.728 77.9906 13.3313 78.3919 13.042C78.8026 12.7527 79.2319 12.594 79.6799 12.566C79.8759 12.566 80.0019 12.5707 80.0579 12.58V14.288ZM84.3963 20.14C83.5936 20.14 82.903 19.9673 82.3243 19.622C81.755 19.2673 81.3163 18.8007 81.0083 18.222C80.7003 17.6433 80.5463 17.018 80.5463 16.346C80.5463 15.6647 80.7003 15.0347 81.0083 14.456C81.3256 13.8773 81.769 13.4153 82.3383 13.07C82.917 12.7153 83.603 12.538 84.3963 12.538C85.1896 12.538 85.871 12.7153 86.4403 13.07C87.019 13.4153 87.4623 13.8773 87.7703 14.456C88.0783 15.0347 88.2323 15.6647 88.2323 16.346C88.2323 17.018 88.0783 17.6433 87.7703 18.222C87.4623 18.8007 87.019 19.2673 86.4403 19.622C85.871 19.9673 85.1896 20.14 84.3963 20.14ZM82.4783 16.346C82.4783 16.7753 82.5623 17.158 82.7303 17.494C82.8983 17.8207 83.127 18.0773 83.4163 18.264C83.7056 18.4507 84.0323 18.544 84.3963 18.544C84.751 18.544 85.073 18.4507 85.3623 18.264C85.6516 18.068 85.8803 17.8067 86.0483 17.48C86.2256 17.144 86.3143 16.7613 86.3143 16.332C86.3143 15.912 86.2256 15.5387 86.0483 15.212C85.8803 14.876 85.6516 14.6147 85.3623 14.428C85.073 14.232 84.751 14.134 84.3963 14.134C84.0323 14.134 83.7056 14.232 83.4163 14.428C83.127 14.6147 82.8983 14.876 82.7303 15.212C82.5623 15.5387 82.4783 15.9167 82.4783 16.346ZM89.0505 16.332C89.0505 15.632 89.1905 14.9927 89.4705 14.414C89.7505 13.8353 90.1379 13.378 90.6325 13.042C91.1272 12.706 91.6919 12.538 92.3265 12.538C92.8679 12.538 93.3532 12.6733 93.7825 12.944C94.2212 13.2053 94.5619 13.5413 94.8045 13.952V9.78H96.6805V17.9C96.6805 18.1053 96.7132 18.25 96.7785 18.334C96.8439 18.4087 96.9559 18.4553 97.1145 18.474V20C96.7785 20.0653 96.5125 20.098 96.3165 20.098C95.9805 20.098 95.7005 20.014 95.4765 19.846C95.2619 19.678 95.1405 19.4587 95.1125 19.188L95.0845 18.726C94.8139 19.1833 94.4452 19.5333 93.9785 19.776C93.5212 20.0187 93.0405 20.14 92.5365 20.14C91.8552 20.14 91.2532 19.972 90.7305 19.636C90.2079 19.2907 89.7972 18.8333 89.4985 18.264C89.1999 17.6853 89.0505 17.0413 89.0505 16.332ZM94.8045 17.312V15.562C94.6552 15.1513 94.3985 14.8107 94.0345 14.54C93.6705 14.2693 93.2972 14.134 92.9145 14.134C92.5319 14.134 92.1959 14.2413 91.9065 14.456C91.6172 14.6613 91.3932 14.9367 91.2345 15.282C91.0759 15.618 90.9965 15.982 90.9965 16.374C90.9965 16.7753 91.0852 17.144 91.2625 17.48C91.4399 17.8067 91.6779 18.068 91.9765 18.264C92.2845 18.4507 92.6345 18.544 93.0265 18.544C93.3812 18.544 93.7312 18.4273 94.0765 18.194C94.4312 17.9607 94.6739 17.6667 94.8045 17.312ZM98.452 17.256V12.664H100.328V16.85C100.328 17.9793 100.734 18.544 101.546 18.544C101.91 18.544 102.26 18.4367 102.596 18.222C102.941 17.998 103.221 17.662 103.436 17.214V12.664H105.312V17.9C105.312 18.1053 105.345 18.25 105.41 18.334C105.475 18.4087 105.592 18.4553 105.76 18.474V20C105.573 20.0373 105.415 20.0607 105.284 20.07C105.163 20.0793 105.051 20.084 104.948 20.084C104.612 20.084 104.337 20.0093 104.122 19.86C103.917 19.7013 103.795 19.4867 103.758 19.216L103.716 18.628C103.389 19.132 102.969 19.51 102.456 19.762C101.943 20.014 101.378 20.14 100.762 20.14C100.006 20.14 99.432 19.8973 99.04 19.412C98.648 18.9173 98.452 18.1987 98.452 17.256ZM110.592 20.14C109.799 20.14 109.113 19.9627 108.534 19.608C107.956 19.2533 107.508 18.7867 107.19 18.208C106.873 17.6293 106.714 17.004 106.714 16.332C106.714 15.6507 106.868 15.0207 107.176 14.442C107.494 13.8633 107.942 13.4013 108.52 13.056C109.099 12.7107 109.785 12.538 110.578 12.538C111.381 12.538 112.062 12.7107 112.622 13.056C113.192 13.4013 113.616 13.854 113.896 14.414L112.062 14.974C111.736 14.414 111.236 14.134 110.564 14.134C110.2 14.134 109.874 14.2273 109.584 14.414C109.295 14.5913 109.066 14.848 108.898 15.184C108.73 15.5107 108.646 15.8933 108.646 16.332C108.646 16.7613 108.73 17.144 108.898 17.48C109.076 17.8067 109.309 18.068 109.598 18.264C109.888 18.4507 110.21 18.544 110.564 18.544C110.9 18.544 111.208 18.4647 111.488 18.306C111.778 18.138 111.978 17.928 112.09 17.676L113.924 18.236C113.672 18.7867 113.252 19.244 112.664 19.608C112.086 19.9627 111.395 20.14 110.592 20.14ZM119.475 19.622C119.223 19.734 118.91 19.846 118.537 19.958C118.173 20.07 117.795 20.126 117.403 20.126C117.057 20.126 116.74 20.0653 116.451 19.944C116.161 19.8227 115.928 19.6313 115.751 19.37C115.583 19.0993 115.499 18.7493 115.499 18.32V14.106H114.533V12.664H115.499V10.284H117.375V12.664H118.915V14.106H117.375V17.69C117.375 17.942 117.44 18.124 117.571 18.236C117.711 18.348 117.879 18.404 118.075 18.404C118.271 18.404 118.462 18.3713 118.649 18.306C118.835 18.2407 118.985 18.1847 119.097 18.138L119.475 19.622ZM123.744 20.14C122.941 20.14 122.251 19.9673 121.672 19.622C121.103 19.2673 120.664 18.8007 120.356 18.222C120.048 17.6433 119.894 17.018 119.894 16.346C119.894 15.6647 120.048 15.0347 120.356 14.456C120.673 13.8773 121.117 13.4153 121.686 13.07C122.265 12.7153 122.951 12.538 123.744 12.538C124.537 12.538 125.219 12.7153 125.788 13.07C126.367 13.4153 126.81 13.8773 127.118 14.456C127.426 15.0347 127.58 15.6647 127.58 16.346C127.58 17.018 127.426 17.6433 127.118 18.222C126.81 18.8007 126.367 19.2673 125.788 19.622C125.219 19.9673 124.537 20.14 123.744 20.14ZM121.826 16.346C121.826 16.7753 121.91 17.158 122.078 17.494C122.246 17.8207 122.475 18.0773 122.764 18.264C123.053 18.4507 123.38 18.544 123.744 18.544C124.099 18.544 124.421 18.4507 124.71 18.264C124.999 18.068 125.228 17.8067 125.396 17.48C125.573 17.144 125.662 16.7613 125.662 16.332C125.662 15.912 125.573 15.5387 125.396 15.212C125.228 14.876 124.999 14.6147 124.71 14.428C124.421 14.232 124.099 14.134 123.744 14.134C123.38 14.134 123.053 14.232 122.764 14.428C122.475 14.6147 122.246 14.876 122.078 15.212C121.91 15.5387 121.826 15.9167 121.826 16.346ZM131.548 20.14C130.923 20.14 130.326 20.0373 129.756 19.832C129.187 19.6267 128.697 19.3233 128.286 18.922L128.958 17.704C129.397 18.0587 129.826 18.32 130.246 18.488C130.666 18.656 131.077 18.74 131.478 18.74C131.842 18.74 132.132 18.6747 132.346 18.544C132.57 18.4133 132.682 18.2173 132.682 17.956C132.682 17.6853 132.547 17.5033 132.276 17.41C132.006 17.3073 131.628 17.1813 131.142 17.032C130.601 16.864 130.148 16.6913 129.784 16.514C129.42 16.3367 129.145 16.122 128.958 15.87C128.781 15.618 128.692 15.2913 128.692 14.89C128.692 14.1713 128.963 13.5973 129.504 13.168C130.046 12.7387 130.764 12.524 131.66 12.524C132.183 12.524 132.678 12.608 133.144 12.776C133.611 12.9347 134.036 13.196 134.418 13.56L133.662 14.75C132.944 14.19 132.248 13.91 131.576 13.91C131.278 13.91 131.012 13.966 130.778 14.078C130.554 14.19 130.442 14.386 130.442 14.666C130.442 14.9273 130.55 15.114 130.764 15.226C130.988 15.338 131.324 15.4593 131.772 15.59C132.351 15.7673 132.841 15.94 133.242 16.108C133.653 16.276 133.961 16.4907 134.166 16.752C134.381 17.0133 134.488 17.368 134.488 17.816C134.488 18.544 134.222 19.1133 133.69 19.524C133.158 19.9347 132.444 20.14 131.548 20.14ZM139.575 20V14.484H138.609V13.056H139.575V12.608C139.575 11.7027 139.795 10.984 140.233 10.452C140.681 9.91067 141.279 9.64 142.025 9.64C142.623 9.64 143.225 9.78467 143.831 10.074L143.453 11.488C143.313 11.4133 143.145 11.3527 142.949 11.306C142.763 11.25 142.59 11.222 142.431 11.222C141.778 11.222 141.451 11.6607 141.451 12.538V13.056H143.243V14.484H141.451V20H139.575ZM143.764 17.83C143.764 17.354 143.895 16.9387 144.156 16.584C144.427 16.22 144.8 15.94 145.276 15.744C145.752 15.548 146.298 15.45 146.914 15.45C147.222 15.45 147.535 15.478 147.852 15.534C148.169 15.5807 148.445 15.6507 148.678 15.744V15.352C148.678 14.8853 148.538 14.526 148.258 14.274C147.987 14.022 147.581 13.896 147.04 13.896C146.639 13.896 146.256 13.966 145.892 14.106C145.528 14.246 145.145 14.4513 144.744 14.722L144.142 13.49C144.627 13.1727 145.122 12.9347 145.626 12.776C146.139 12.6173 146.676 12.538 147.236 12.538C148.281 12.538 149.093 12.7993 149.672 13.322C150.26 13.8447 150.554 14.5913 150.554 15.562V17.9C150.554 18.1053 150.587 18.25 150.652 18.334C150.717 18.4087 150.834 18.4553 151.002 18.474V20C150.834 20.0373 150.68 20.0607 150.54 20.07C150.409 20.0887 150.297 20.098 150.204 20.098C149.831 20.098 149.546 20.014 149.35 19.846C149.154 19.678 149.037 19.4727 149 19.23L148.958 18.852C148.631 19.272 148.23 19.594 147.754 19.818C147.287 20.0327 146.807 20.14 146.312 20.14C145.817 20.14 145.379 20.042 144.996 19.846C144.613 19.6407 144.31 19.3653 144.086 19.02C143.871 18.6653 143.764 18.2687 143.764 17.83ZM148.328 18.208C148.561 17.984 148.678 17.7693 148.678 17.564V16.822C148.193 16.626 147.703 16.528 147.208 16.528C146.713 16.528 146.312 16.6353 146.004 16.85C145.696 17.0553 145.542 17.3307 145.542 17.676C145.542 17.956 145.654 18.208 145.878 18.432C146.102 18.656 146.424 18.768 146.844 18.768C147.124 18.768 147.395 18.7167 147.656 18.614C147.927 18.5113 148.151 18.376 148.328 18.208ZM154.021 20L151.319 12.664H153.265L155.113 18.292L156.975 12.664H158.753L156.065 20H154.021ZM162.887 20.14C162.084 20.14 161.393 19.9673 160.815 19.622C160.245 19.2673 159.807 18.8007 159.499 18.222C159.191 17.6433 159.037 17.018 159.037 16.346C159.037 15.6647 159.191 15.0347 159.499 14.456C159.816 13.8773 160.259 13.4153 160.829 13.07C161.407 12.7153 162.093 12.538 162.887 12.538C163.68 12.538 164.361 12.7153 164.931 13.07C165.509 13.4153 165.953 13.8773 166.261 14.456C166.569 15.0347 166.723 15.6647 166.723 16.346C166.723 17.018 166.569 17.6433 166.261 18.222C165.953 18.8007 165.509 19.2673 164.931 19.622C164.361 19.9673 163.68 20.14 162.887 20.14ZM160.969 16.346C160.969 16.7753 161.053 17.158 161.221 17.494C161.389 17.8207 161.617 18.0773 161.907 18.264C162.196 18.4507 162.523 18.544 162.887 18.544C163.241 18.544 163.563 18.4507 163.853 18.264C164.142 18.068 164.371 17.8067 164.539 17.48C164.716 17.144 164.805 16.7613 164.805 16.332C164.805 15.912 164.716 15.5387 164.539 15.212C164.371 14.876 164.142 14.6147 163.853 14.428C163.563 14.232 163.241 14.134 162.887 14.134C162.523 14.134 162.196 14.232 161.907 14.428C161.617 14.6147 161.389 14.876 161.221 15.212C161.053 15.5387 160.969 15.9167 160.969 16.346ZM172.357 14.288C171.787 14.288 171.279 14.4 170.831 14.624C170.383 14.8387 170.061 15.1513 169.865 15.562V20H167.989V12.664H169.711V14.232C169.963 13.728 170.289 13.3313 170.691 13.042C171.101 12.7527 171.531 12.594 171.979 12.566C172.175 12.566 172.301 12.5707 172.357 12.58V14.288ZM173.403 11.642V9.78H175.279V11.642H173.403ZM173.403 20V12.664H175.279V20H173.403ZM181.367 19.622C181.115 19.734 180.803 19.846 180.429 19.958C180.065 20.07 179.687 20.126 179.295 20.126C178.95 20.126 178.633 20.0653 178.343 19.944C178.054 19.8227 177.821 19.6313 177.643 19.37C177.475 19.0993 177.391 18.7493 177.391 18.32V14.106H176.425V12.664H177.391V10.284H179.267V12.664H180.807V14.106H179.267V17.69C179.267 17.942 179.333 18.124 179.463 18.236C179.603 18.348 179.771 18.404 179.967 18.404C180.163 18.404 180.355 18.3713 180.541 18.306C180.728 18.2407 180.877 18.1847 180.989 18.138L181.367 19.622ZM185.637 20.14C184.834 20.14 184.143 19.9673 183.565 19.622C182.995 19.2673 182.557 18.8007 182.249 18.222C181.941 17.6433 181.787 17.018 181.787 16.346C181.787 15.6647 181.941 15.0347 182.249 14.456C182.566 13.8773 183.009 13.4153 183.579 13.07C184.157 12.7153 184.843 12.538 185.637 12.538C186.43 12.538 187.111 12.7153 187.681 13.07C188.259 13.4153 188.703 13.8773 189.011 14.456C189.319 15.0347 189.473 15.6647 189.473 16.346C189.473 17.018 189.319 17.6433 189.011 18.222C188.703 18.8007 188.259 19.2673 187.681 19.622C187.111 19.9673 186.43 20.14 185.637 20.14ZM183.719 16.346C183.719 16.7753 183.803 17.158 183.971 17.494C184.139 17.8207 184.367 18.0773 184.657 18.264C184.946 18.4507 185.273 18.544 185.637 18.544C185.991 18.544 186.313 18.4507 186.603 18.264C186.892 18.068 187.121 17.8067 187.289 17.48C187.466 17.144 187.555 16.7613 187.555 16.332C187.555 15.912 187.466 15.5387 187.289 15.212C187.121 14.876 186.892 14.6147 186.603 14.428C186.313 14.232 185.991 14.134 185.637 14.134C185.273 14.134 184.946 14.232 184.657 14.428C184.367 14.6147 184.139 14.876 183.971 15.212C183.803 15.5387 183.719 15.9167 183.719 16.346ZM193.441 20.14C192.815 20.14 192.218 20.0373 191.649 19.832C191.079 19.6267 190.589 19.3233 190.179 18.922L190.851 17.704C191.289 18.0587 191.719 18.32 192.139 18.488C192.559 18.656 192.969 18.74 193.371 18.74C193.735 18.74 194.024 18.6747 194.239 18.544C194.463 18.4133 194.575 18.2173 194.575 17.956C194.575 17.6853 194.439 17.5033 194.169 17.41C193.898 17.3073 193.52 17.1813 193.035 17.032C192.493 16.864 192.041 16.6913 191.677 16.514C191.313 16.3367 191.037 16.122 190.851 15.87C190.673 15.618 190.585 15.2913 190.585 14.89C190.585 14.1713 190.855 13.5973 191.397 13.168C191.938 12.7387 192.657 12.524 193.553 12.524C194.075 12.524 194.57 12.608 195.037 12.776C195.503 12.9347 195.928 13.196 196.311 13.56L195.555 14.75C194.836 14.19 194.141 13.91 193.469 13.91C193.17 13.91 192.904 13.966 192.671 14.078C192.447 14.19 192.335 14.386 192.335 14.666C192.335 14.9273 192.442 15.114 192.657 15.226C192.881 15.338 193.217 15.4593 193.665 15.59C194.243 15.7673 194.733 15.94 195.135 16.108C195.545 16.276 195.853 16.4907 196.059 16.752C196.273 17.0133 196.381 17.368 196.381 17.816C196.381 18.544 196.115 19.1133 195.583 19.524C195.051 19.9347 194.337 20.14 193.441 20.14Z" fill="#4F4E4E"/>
    <rect x="264" width="32" height="30.8772" rx="7" fill="#DCDCDC"/>
    <path d="M275.789 21.3684L281.158 16L275.789 10.6316L277.45 8.98243L284.468 16L277.45 23.0175L275.789 21.3684Z" fill="#4F4E4E"/>
</svg>