<svg width="26" height="26" viewBox="0 0 26 26" fill="none" xmlns="http://www.w3.org/2000/svg">
    <path d="M6.75 19.25L10.75 10.75L19.25 6.75L15.25 15.25L6.75 19.25ZM13 11.875C12.7016 11.875 12.4155 11.9935 12.2045 12.2045C11.9935 12.4155 11.875 12.7016 11.875 13C11.875 13.2984 11.9935 13.5845 12.2045 13.7955C12.4155 14.0065 12.7016 14.125 13 14.125C13.2984 14.125 13.5845 14.0065 13.7955 13.7955C14.0065 13.5845 14.125 13.2984 14.125 13C14.125 12.7016 14.0065 12.4155 13.7955 12.2045C13.5845 11.9935 13.2984 11.875 13 11.875ZM13 0.5C14.6415 0.5 16.267 0.823322 17.7835 1.45151C19.3001 2.07969 20.6781 3.00043 21.8388 4.16117C22.9996 5.3219 23.9203 6.69989 24.5485 8.21646C25.1767 9.73303 25.5 11.3585 25.5 13C25.5 16.3152 24.183 19.4946 21.8388 21.8388C19.4946 24.183 16.3152 25.5 13 25.5C11.3585 25.5 9.73303 25.1767 8.21646 24.5485C6.69989 23.9203 5.3219 22.9996 4.16117 21.8388C1.81696 19.4946 0.5 16.3152 0.5 13C0.5 9.68479 1.81696 6.50537 4.16117 4.16117C6.50537 1.81696 9.68479 0.5 13 0.5ZM13 3C10.3478 3 7.8043 4.05357 5.92893 5.92893C4.05357 7.8043 3 10.3478 3 13C3 15.6522 4.05357 18.1957 5.92893 20.0711C7.8043 21.9464 10.3478 23 13 23C15.6522 23 18.1957 21.9464 20.0711 20.0711C21.9464 18.1957 23 15.6522 23 13C23 10.3478 21.9464 7.8043 20.0711 5.92893C18.1957 4.05357 15.6522 3 13 3Z" fill="#BDBCBC"/>
</svg>   