<svg width="24" height="20" viewBox="0 0 24 20" fill="none" xmlns="http://www.w3.org/2000/svg">
    <path d="M5.75 1.25H23.25V3.75H5.75V1.25ZM5.75 11.25V8.75H23.25V11.25H5.75ZM2 0.625C2.49728 0.625 2.97419 0.822544 3.32583 1.17417C3.67746 1.52581 3.875 2.00272 3.875 2.5C3.875 2.99728 3.67746 3.47419 3.32583 3.82583C2.97419 4.17746 2.49728 4.375 2 4.375C1.50272 4.375 1.02581 4.17746 0.674175 3.82583C0.322544 3.47419 0.125 2.99728 0.125 2.5C0.125 2.00272 0.322544 1.52581 0.674175 1.17417C1.02581 0.822544 1.50272 0.625 2 0.625ZM2 8.125C2.49728 8.125 2.97419 8.32254 3.32583 8.67417C3.67746 9.02581 3.875 9.50272 3.875 10C3.875 10.4973 3.67746 10.9742 3.32583 11.3258C2.97419 11.6775 2.49728 11.875 2 11.875C1.50272 11.875 1.02581 11.6775 0.674175 11.3258C0.322544 10.9742 0.125 10.4973 0.125 10C0.125 9.50272 0.322544 9.02581 0.674175 8.67417C1.02581 8.32254 1.50272 8.125 2 8.125ZM5.75 18.75V16.25H23.25V18.75H5.75ZM2 15.625C2.49728 15.625 2.97419 15.8225 3.32583 16.1742C3.67746 16.5258 3.875 17.0027 3.875 17.5C3.875 17.9973 3.67746 18.4742 3.32583 18.8258C2.97419 19.1775 2.49728 19.375 2 19.375C1.50272 19.375 1.02581 19.1775 0.674175 18.8258C0.322544 18.4742 0.125 17.9973 0.125 17.5C0.125 17.0027 0.322544 16.5258 0.674175 16.1742C1.02581 15.8225 1.50272 15.625 2 15.625Z" fill="#BDBCBC"/>
</svg>
